<?xml version="1.0" encoding="utf-8"?>
<!-- Generator: Adobe Illustrator 19.2.1, SVG Export Plug-In . SVG Version: 6.00 Build 0)  -->
<svg version="1.1" xmlns="http://www.w3.org/2000/svg" xmlns:xlink="http://www.w3.org/1999/xlink" x="0px" y="0px"
	 viewBox="0 0 652 652" style="enable-background:new 0 0 652 652;" xml:space="preserve">
<style type="text/css">
	.st0{fill:#0C0407;}
	.st1{fill-rule:evenodd;clip-rule:evenodd;fill:#004F8A;}
	.st2{fill:#004F8A;}
</style>
<g id="Layer_1">
	<g>
		<path class="st0" d="M240,670.9l1.6-0.1c0.1,0.6,0.3,1.2,0.5,1.6c0.3,0.4,0.7,0.7,1.3,1c0.6,0.3,1.2,0.4,2,0.4
			c0.7,0,1.2-0.1,1.7-0.3s0.9-0.5,1.1-0.8s0.4-0.7,0.4-1.1c0-0.4-0.1-0.8-0.4-1.1s-0.6-0.6-1.2-0.8c-0.3-0.1-1.1-0.3-2.3-0.6
			s-2-0.6-2.5-0.8c-0.6-0.3-1.1-0.7-1.4-1.2c-0.3-0.5-0.5-1-0.5-1.6c0-0.7,0.2-1.3,0.6-1.8s0.9-1,1.6-1.3s1.5-0.4,2.4-0.4
			c1,0,1.8,0.2,2.5,0.5c0.7,0.3,1.3,0.8,1.7,1.4s0.6,1.3,0.6,2l-1.6,0.1c-0.1-0.8-0.4-1.4-0.9-1.8c-0.5-0.4-1.3-0.6-2.2-0.6
			c-1,0-1.8,0.2-2.3,0.6c-0.5,0.4-0.7,0.8-0.7,1.4c0,0.5,0.2,0.8,0.5,1.1c0.3,0.3,1.2,0.6,2.6,0.9c1.4,0.3,2.3,0.6,2.9,0.8
			c0.8,0.3,1.3,0.8,1.7,1.3s0.5,1.1,0.5,1.8c0,0.7-0.2,1.3-0.6,1.9c-0.4,0.6-1,1.1-1.7,1.4c-0.7,0.3-1.6,0.5-2.5,0.5
			c-1.2,0-2.1-0.2-2.9-0.5c-0.8-0.3-1.4-0.9-1.9-1.5C240.3,672.6,240,671.8,240,670.9z"/>
		<path class="st0" d="M258.8,672.1l1.6,0.2c-0.3,1-0.7,1.7-1.4,2.2s-1.6,0.8-2.7,0.8c-1.4,0-2.4-0.4-3.2-1.3
			c-0.8-0.8-1.2-2-1.2-3.5c0-1.6,0.4-2.8,1.2-3.7s1.9-1.3,3.1-1.3c1.2,0,2.3,0.4,3.1,1.3s1.2,2,1.2,3.6c0,0.1,0,0.2,0,0.4h-7
			c0.1,1,0.3,1.8,0.9,2.4s1.2,0.8,2,0.8c0.6,0,1.1-0.2,1.5-0.5S258.6,672.7,258.8,672.1z M253.6,669.5h5.2c-0.1-0.8-0.3-1.4-0.6-1.8
			c-0.5-0.6-1.2-0.9-2-0.9c-0.7,0-1.3,0.2-1.8,0.7S253.6,668.7,253.6,669.5z"/>
		<path class="st0" d="M268.8,672.1l1.6,0.2c-0.3,1-0.7,1.7-1.4,2.2s-1.6,0.8-2.7,0.8c-1.4,0-2.4-0.4-3.2-1.3
			c-0.8-0.8-1.2-2-1.2-3.5c0-1.6,0.4-2.8,1.2-3.7s1.9-1.3,3.1-1.3c1.2,0,2.3,0.4,3.1,1.3s1.2,2,1.2,3.6c0,0.1,0,0.2,0,0.4h-7
			c0.1,1,0.3,1.8,0.9,2.4s1.2,0.8,2,0.8c0.6,0,1.1-0.2,1.5-0.5S268.6,672.7,268.8,672.1z M263.6,669.5h5.2c-0.1-0.8-0.3-1.4-0.6-1.8
			c-0.5-0.6-1.2-0.9-2-0.9c-0.7,0-1.3,0.2-1.8,0.7S263.7,668.7,263.6,669.5z"/>
		<path class="st0" d="M272.4,675.1v-12.9h1.6v7.3l3.7-3.8h2l-3.6,3.5l3.9,5.9h-2l-3.1-4.8l-1.1,1.1v3.7H272.4z"/>
		<path class="st0" d="M285.3,675.1l-5-12.9h1.8l3.3,9.4c0.3,0.8,0.5,1.5,0.7,2.1c0.2-0.7,0.4-1.4,0.7-2.1l3.5-9.4h1.7l-5,12.9
			H285.3z"/>
		<path class="st0" d="M298.8,672.1l1.6,0.2c-0.3,1-0.7,1.7-1.4,2.2s-1.6,0.8-2.7,0.8c-1.4,0-2.4-0.4-3.2-1.3
			c-0.8-0.8-1.2-2-1.2-3.5c0-1.6,0.4-2.8,1.2-3.7s1.9-1.3,3.1-1.3c1.2,0,2.3,0.4,3.1,1.3s1.2,2,1.2,3.6c0,0.1,0,0.2,0,0.4h-7
			c0.1,1,0.3,1.8,0.9,2.4s1.2,0.8,2,0.8c0.6,0,1.1-0.2,1.5-0.5S298.6,672.7,298.8,672.1z M293.6,669.5h5.2c-0.1-0.8-0.3-1.4-0.6-1.8
			c-0.5-0.6-1.2-0.9-2-0.9c-0.7,0-1.3,0.2-1.8,0.7S293.7,668.7,293.6,669.5z"/>
		<path class="st0" d="M308.5,671.7l1.6,0.2c-0.2,1.1-0.6,1.9-1.3,2.5c-0.7,0.6-1.6,0.9-2.6,0.9c-1.3,0-2.3-0.4-3.1-1.3
			c-0.8-0.8-1.2-2-1.2-3.6c0-1,0.2-1.9,0.5-2.6s0.8-1.3,1.5-1.7c0.7-0.4,1.4-0.6,2.2-0.6c1,0,1.8,0.3,2.5,0.8s1.1,1.2,1.2,2.2
			l-1.5,0.2c-0.1-0.6-0.4-1.1-0.8-1.4s-0.8-0.5-1.3-0.5c-0.8,0-1.4,0.3-1.9,0.9c-0.5,0.6-0.7,1.5-0.7,2.7c0,1.3,0.2,2.2,0.7,2.7
			s1.1,0.9,1.9,0.9c0.6,0,1.1-0.2,1.6-0.6S308.4,672.4,308.5,671.7z"/>
		<path class="st0" d="M314.9,673.7l0.2,1.4c-0.4,0.1-0.8,0.1-1.2,0.1c-0.6,0-1-0.1-1.3-0.3s-0.5-0.4-0.7-0.7s-0.2-0.9-0.2-1.9V667
			h-1.2v-1.2h1.2v-2.3l1.6-0.9v3.3h1.6v1.2h-1.6v5.5c0,0.5,0,0.7,0.1,0.9s0.1,0.2,0.3,0.3c0.1,0.1,0.3,0.1,0.5,0.1
			C314.4,673.7,314.6,673.7,314.9,673.7z"/>
		<path class="st0" d="M315.9,670.4c0-1.7,0.5-3,1.4-3.8c0.8-0.7,1.8-1,2.9-1c1.3,0,2.3,0.4,3.1,1.3s1.2,2,1.2,3.5
			c0,1.2-0.2,2.1-0.5,2.8c-0.4,0.7-0.9,1.2-1.6,1.6s-1.4,0.6-2.3,0.6c-1.3,0-2.4-0.4-3.2-1.3C316.3,673.2,315.9,672,315.9,670.4z
			 M317.5,670.4c0,1.2,0.3,2.1,0.8,2.7c0.5,0.6,1.2,0.9,2,0.9c0.8,0,1.4-0.3,2-0.9s0.8-1.5,0.8-2.7c0-1.2-0.3-2-0.8-2.6
			c-0.5-0.6-1.2-0.9-2-0.9c-0.8,0-1.4,0.3-2,0.9S317.5,669.2,317.5,670.4z"/>
		<path class="st0" d="M326.4,675.1v-9.3h1.4v1.4c0.4-0.7,0.7-1.1,1-1.3c0.3-0.2,0.6-0.3,1-0.3c0.5,0,1.1,0.2,1.6,0.5l-0.5,1.5
			c-0.4-0.2-0.8-0.3-1.2-0.3c-0.3,0-0.7,0.1-0.9,0.3s-0.5,0.5-0.6,0.9c-0.2,0.6-0.3,1.2-0.3,1.8v4.9H326.4z"/>
		<path class="st0" d="M332.6,675.1v-12.9h1.7v11.4h6.3v1.5H332.6z"/>
		<path class="st0" d="M341.9,670.4c0-1.7,0.5-3,1.4-3.8c0.8-0.7,1.8-1,2.9-1c1.3,0,2.3,0.4,3.1,1.3s1.2,2,1.2,3.5
			c0,1.2-0.2,2.1-0.5,2.8c-0.4,0.7-0.9,1.2-1.6,1.6s-1.4,0.6-2.3,0.6c-1.3,0-2.4-0.4-3.2-1.3C342.3,673.2,341.9,672,341.9,670.4z
			 M343.5,670.4c0,1.2,0.3,2.1,0.8,2.7c0.5,0.6,1.2,0.9,2,0.9c0.8,0,1.4-0.3,2-0.9s0.8-1.5,0.8-2.7c0-1.2-0.3-2-0.8-2.6
			c-0.5-0.6-1.2-0.9-2-0.9c-0.8,0-1.4,0.3-2,0.9S343.5,669.2,343.5,670.4z"/>
		<path class="st0" d="M352.2,675.8l1.5,0.2c0.1,0.5,0.2,0.8,0.5,1c0.4,0.3,0.9,0.4,1.6,0.4c0.7,0,1.3-0.1,1.7-0.4s0.7-0.7,0.8-1.2
			c0.1-0.3,0.1-1,0.1-2c-0.7,0.8-1.6,1.2-2.6,1.2c-1.3,0-2.3-0.5-3-1.4s-1.1-2-1.1-3.3c0-0.9,0.2-1.7,0.5-2.5
			c0.3-0.8,0.8-1.3,1.4-1.7s1.3-0.6,2.2-0.6c1.1,0,2,0.4,2.7,1.3v-1.1h1.5v8.1c0,1.5-0.1,2.5-0.4,3.1c-0.3,0.6-0.8,1.1-1.4,1.4
			c-0.6,0.4-1.4,0.5-2.4,0.5c-1.1,0-2-0.3-2.7-0.8C352.5,677.6,352.2,676.9,352.2,675.8z M353.5,670.2c0,1.2,0.2,2.1,0.7,2.7
			s1.1,0.8,1.8,0.8c0.7,0,1.3-0.3,1.8-0.8s0.7-1.4,0.7-2.6c0-1.1-0.3-2-0.8-2.6c-0.5-0.6-1.1-0.9-1.8-0.9c-0.7,0-1.3,0.3-1.8,0.9
			C353.7,668.3,353.5,669.1,353.5,670.2z"/>
		<path class="st0" d="M361.9,670.4c0-1.7,0.5-3,1.4-3.8c0.8-0.7,1.8-1,2.9-1c1.3,0,2.3,0.4,3.1,1.3s1.2,2,1.2,3.5
			c0,1.2-0.2,2.1-0.5,2.8c-0.4,0.7-0.9,1.2-1.6,1.6s-1.4,0.6-2.3,0.6c-1.3,0-2.4-0.4-3.2-1.3C362.3,673.2,361.9,672,361.9,670.4z
			 M363.5,670.4c0,1.2,0.3,2.1,0.8,2.7c0.5,0.6,1.2,0.9,2,0.9c0.8,0,1.4-0.3,2-0.9s0.8-1.5,0.8-2.7c0-1.2-0.3-2-0.8-2.6
			c-0.5-0.6-1.2-0.9-2-0.9c-0.8,0-1.4,0.3-2,0.9S363.5,669.2,363.5,670.4z"/>
		<path class="st0" d="M372.9,675.1v-1.8h1.8v1.8H372.9z"/>
		<path class="st0" d="M386.9,670.6l1.7,0.4c-0.4,1.4-1,2.5-1.9,3.2s-2.1,1.1-3.4,1.1c-1.4,0-2.5-0.3-3.4-0.8
			c-0.9-0.6-1.5-1.4-2-2.5c-0.5-1.1-0.7-2.2-0.7-3.5c0-1.3,0.3-2.5,0.8-3.5c0.5-1,1.2-1.8,2.2-2.3c0.9-0.5,2-0.8,3.1-0.8
			c1.3,0,2.4,0.3,3.3,1s1.5,1.6,1.8,2.8l-1.7,0.4c-0.3-0.9-0.7-1.6-1.3-2s-1.3-0.6-2.1-0.6c-1,0-1.8,0.2-2.5,0.7
			c-0.7,0.5-1.1,1.1-1.4,1.9c-0.3,0.8-0.4,1.6-0.4,2.5c0,1.1,0.2,2.1,0.5,2.9c0.3,0.8,0.8,1.4,1.5,1.8s1.4,0.6,2.2,0.6
			c1,0,1.8-0.3,2.4-0.8S386.7,671.6,386.9,670.6z"/>
		<path class="st0" d="M389.9,670.4c0-1.7,0.5-3,1.4-3.8c0.8-0.7,1.8-1,2.9-1c1.3,0,2.3,0.4,3.1,1.3s1.2,2,1.2,3.5
			c0,1.2-0.2,2.1-0.5,2.8c-0.4,0.7-0.9,1.2-1.6,1.6s-1.4,0.6-2.3,0.6c-1.3,0-2.4-0.4-3.2-1.3C390.3,673.2,389.9,672,389.9,670.4z
			 M391.5,670.4c0,1.2,0.3,2.1,0.8,2.7c0.5,0.6,1.2,0.9,2,0.9c0.8,0,1.4-0.3,2-0.9s0.8-1.5,0.8-2.7c0-1.2-0.3-2-0.8-2.6
			c-0.5-0.6-1.2-0.9-2-0.9c-0.8,0-1.4,0.3-2,0.9S391.5,669.2,391.5,670.4z"/>
		<path class="st0" d="M400.5,675.1v-9.3h1.4v1.3c0.3-0.5,0.7-0.8,1.2-1.1s1-0.4,1.7-0.4c0.7,0,1.3,0.1,1.7,0.4
			c0.4,0.3,0.8,0.7,0.9,1.2c0.7-1.1,1.7-1.6,2.9-1.6c0.9,0,1.6,0.3,2.1,0.8s0.7,1.3,0.7,2.4v6.4h-1.6v-5.9c0-0.6-0.1-1.1-0.2-1.4
			c-0.1-0.3-0.3-0.5-0.6-0.7s-0.6-0.3-0.9-0.3c-0.7,0-1.2,0.2-1.6,0.7c-0.4,0.4-0.7,1.1-0.7,2.1v5.4h-1.6V669c0-0.7-0.1-1.2-0.4-1.6
			s-0.7-0.5-1.3-0.5c-0.4,0-0.9,0.1-1.2,0.4c-0.4,0.2-0.7,0.6-0.8,1s-0.3,1.1-0.3,2v4.8H400.5z"/>
	</g>
</g>
<g id="Layer_2">
	<path class="st1" d="M65.4,376.5L90,333.8H73.4l8.3-14.3l39,0l-8.3,14.4l-14.1,0l-24.9,43.3c27.7,0,50.5-22.7,50.5-50.5
		c0-27.6-22.7-50.3-50.5-50.3c-2,0-4.1,0.1-5.9,0.4l-24.8,42.9h30.7L65,333.8h-39l31.8-55C37.6,285.3,23,304.4,23,326.6
		C23,351.7,41.4,372.6,65.4,376.5 M73.4,269.1c31.7,0,57.6,25.9,57.6,57.6c0,31.8-26,57.7-57.6,57.7c-31.8,0-57.6-25.9-57.6-57.7
		C15.8,294.9,41.6,269.1,73.4,269.1"/>
	<path class="st2" d="M607.4,326.6c1.5-6.8,6.3-13.7,14.2-13.7c8,0,9.7,6.9,8.3,13.7c-1.5,6.9-6.1,13.9-14.2,13.9
		C607.4,340.5,605.9,333.5,607.4,326.6 M599.1,326.6c-2.6,11.7,2.4,20,15.2,20c12.6,0,21.4-8.4,23.9-20c2.5-11.6-2.8-19.8-15.3-19.8
		C610.2,306.8,601.6,314.8,599.1,326.6 M564.6,345.9h8l3.5-15.9h2.6c3.4,0,4.2,1.1,4.7,4l2.2,12h8.9l-3.2-15
		c-0.4-1.7-1.2-3.8-3.4-3.9l0-0.1c5.2-0.7,9.2-4.4,10.2-8.9c2.3-10.7-8-10.4-16.6-10.4h-8.7L564.6,345.9z M579.6,313.5h2.6
		c4,0,8.4,0.4,7.4,5c-1.1,4.8-5.7,5.3-9.6,5.3h-2.6L579.6,313.5z M531.4,345.9h14c5,0,14.4-1.4,16.5-11.1c1-4.7-2-8.3-7.3-8.7l0-0.1
		c4.9-0.8,8.8-4,9.8-8.6c1.8-8.4-5.6-9.8-10.7-9.8h-14L531.4,345.9z M546.5,313.5h3.1c3.7,0,7.6,0.3,6.7,4.8
		c-0.9,3.9-5.2,4.7-8.6,4.7h-3.3L546.5,313.5z M543.2,328.7h3.8c4,0,8.1,0.8,7,5.8c-1,4.4-5.7,5.3-9.4,5.3h-3.8L543.2,328.7z
		 M495.7,332c-2.2,10.3,2.9,14.5,13.2,14.5c10.2,0,17.2-4.2,19.5-14.5l5.3-24.6h-8l-4.8,22.2c-1.4,6.5-4.5,10.9-10.7,10.9
		s-7.4-4.3-5.9-10.9l4.8-22.2h-8L495.7,332z M461.9,326.6c1.5-6.8,6.2-13.7,14.1-13.7c8,0,9.8,6.9,8.3,13.7
		c-1.5,6.9-6,13.9-14.2,13.9C461.9,340.5,460.3,333.5,461.9,326.6 M453.5,326.6c-2.6,11.7,2.4,20,15.2,20c12.6,0,21.4-8.4,23.9-20
		c2.5-11.6-2.8-19.8-15.3-19.8C464.7,306.8,456.1,314.8,453.5,326.6 M432.4,345.9h8l7-32.3h11.5l1.3-6.1h-30.9l-1.3,6.1h11.5
		L432.4,345.9z M393.9,325.7c4.9-2.4,8.8-4.9,9.9-10.2c1.4-6.2-4-8.7-9.6-8.7c-5.6,0-12.8,2.9-14.1,8.7c-0.9,4.4,1.1,6.4,3.6,9.2
		c-6.9,2.6-9.7,5.9-10.7,10.6c-1.5,7.2,3.9,11.2,11.8,11.2c4,0,8.4-1.3,11.8-4.1l2,3.4h9.8l-5.5-7.7c4-3.7,6.7-8.3,7.9-13.1h-7
		c-0.8,3-2,6.2-4.4,8.3L393.9,325.7z M390.3,321.8c-1.2-1.5-3-3.3-2.6-5.4c0.6-2.8,3.2-4.1,5.5-4.1c2.3,0,4.1,1.3,3.5,3.9
		C396.2,318.4,392.5,320.7,390.3,321.8 M393.7,338.5c-2.1,1.7-4.8,2.3-7.5,2.3c-3.7,0-6.3-2.3-5.5-5.7c0.7-3,3.3-4.8,6.2-6.2
		L393.7,338.5z M315.5,345.9h7.6l6.3-28.7h0.1l9.1,28.7h9.8l8.3-38.4H349l-6.2,28.7h-0.1l-9-28.7h-9.8L315.5,345.9z M285.8,345.9
		h23.7l1.3-6h-15.7l2.4-10.8h14.2l1.3-6.1h-14.3l2.1-9.5h15.6l1.3-6.1h-23.6L285.8,345.9z M287.2,308.2c-2.7-0.9-5.9-1.4-9.3-1.4
		c-7,0-14.7,3.1-16.5,11.7c-2.8,12.7,15.4,9.7,13.8,17c-0.8,3.5-5.2,5-8.2,5c-3.2,0-6.1-0.9-8.5-2.4l-2.2,6.9
		c3.7,0.9,5.6,1.5,9.9,1.5c8,0,15.7-3.2,17.5-11.6c2.8-12.8-15.4-10-13.9-16.7c0.9-4.2,4.7-5.3,7.4-5.3c2.8,0,5.5,0.6,7.8,1.6
		L287.2,308.2z M224.6,345.9h8l3.5-15.9h2.6c3.4,0,4.2,1.1,4.7,4l2.2,12h8.9l-3.1-15c-0.4-1.7-1.3-3.8-3.4-3.9v-0.1
		c5.2-0.7,9.2-4.4,10.2-8.9c2.3-10.7-8-10.4-16.6-10.4h-8.7L224.6,345.9z M239.6,313.5h2.6c4,0,8.4,0.4,7.4,5
		c-1.1,4.8-5.7,5.3-9.6,5.3h-2.6L239.6,313.5z M183.8,345.9h8.3l5.4-8.8h16.2l1.5,8.8h8.9l-7.4-38.4h-9L183.8,345.9z M212.8,331
		h-11.7l9.2-15.8h0.1L212.8,331z M159.9,345.9h23.5l1.3-6h-15.5l7-32.4h-8L159.9,345.9z"/>
	<path class="st1" d="M64.8,376.5l24.6-42.6H72.8l8.3-14.3l39,0l-8.3,14.4l-14.1,0l-24.9,43.3c27.7,0,50.5-22.7,50.5-50.5
		c0-27.6-22.7-50.3-50.5-50.3c-2,0-4.1,0.1-5.9,0.4l-24.8,42.9h30.7l-8.3,14.3h-39l31.8-55c-20.2,6.5-34.9,25.6-34.9,47.9
		C22.4,351.7,40.8,372.6,64.8,376.5 M72.8,269.1c31.7,0,57.6,25.9,57.6,57.6c0,31.8-26,57.7-57.6,57.7c-31.8,0-57.6-25.9-57.6-57.7
		C15.2,294.9,41.1,269.1,72.8,269.1"/>
	<path class="st2" d="M606.8,326.6c1.5-6.8,6.3-13.7,14.2-13.7c8,0,9.7,6.9,8.3,13.7c-1.5,6.9-6.1,13.9-14.2,13.9
		C606.9,340.5,605.3,333.5,606.8,326.6 M598.5,326.6c-2.6,11.7,2.4,20,15.2,20c12.6,0,21.4-8.4,23.9-20c2.5-11.6-2.8-19.8-15.3-19.8
		C609.6,306.8,601,314.8,598.5,326.6 M564,345.9h8l3.5-15.9h2.6c3.4,0,4.2,1.1,4.7,4l2.2,12h8.9l-3.2-15c-0.4-1.7-1.2-3.8-3.4-3.9
		l0-0.1c5.2-0.7,9.2-4.4,10.2-8.9c2.3-10.7-8-10.4-16.6-10.4h-8.7L564,345.9z M579,313.5h2.6c4,0,8.4,0.4,7.4,5
		c-1.1,4.8-5.7,5.3-9.6,5.3h-2.6L579,313.5z M530.8,345.9h14c5,0,14.4-1.4,16.5-11.1c1-4.7-2-8.3-7.3-8.7l0-0.1
		c4.9-0.8,8.8-4,9.8-8.6c1.8-8.4-5.6-9.8-10.7-9.8h-14L530.8,345.9z M545.9,313.5h3.1c3.7,0,7.6,0.3,6.7,4.8
		c-0.9,3.9-5.2,4.7-8.6,4.7h-3.3L545.9,313.5z M542.6,328.7h3.8c4,0,8.1,0.8,7,5.8c-1,4.4-5.7,5.3-9.4,5.3h-3.8L542.6,328.7z
		 M495.1,332c-2.2,10.3,2.9,14.5,13.2,14.5s17.2-4.2,19.5-14.5l5.3-24.6h-8l-4.8,22.2c-1.4,6.5-4.5,10.9-10.7,10.9
		c-6.1,0-7.4-4.3-5.9-10.9l4.8-22.2h-8L495.1,332z M461.3,326.6c1.5-6.8,6.2-13.7,14.1-13.7c8,0,9.8,6.9,8.3,13.7
		c-1.5,6.9-6,13.9-14.2,13.9C461.3,340.5,459.8,333.5,461.3,326.6 M452.9,326.6c-2.6,11.7,2.4,20,15.2,20c12.6,0,21.4-8.4,23.9-20
		c2.5-11.6-2.8-19.8-15.3-19.8C464.1,306.8,455.5,314.8,452.9,326.6 M431.8,345.9h8l7-32.3h11.5l1.3-6.1h-30.9l-1.3,6.1h11.5
		L431.8,345.9z M393.3,325.7c4.9-2.4,8.8-4.9,9.9-10.2c1.4-6.2-4-8.7-9.6-8.7c-5.6,0-12.8,2.9-14.1,8.7c-0.9,4.4,1.1,6.4,3.6,9.2
		c-6.9,2.6-9.7,5.9-10.7,10.6c-1.5,7.2,3.9,11.2,11.8,11.2c4,0,8.4-1.3,11.8-4.1l2,3.4h9.8l-5.5-7.7c4-3.7,6.7-8.3,7.9-13.1h-7
		c-0.8,3-2,6.2-4.4,8.3L393.3,325.7z M389.7,321.8c-1.2-1.5-3-3.3-2.6-5.4c0.6-2.8,3.2-4.1,5.5-4.1c2.3,0,4.1,1.3,3.5,3.9
		C395.6,318.4,391.9,320.7,389.7,321.8 M393.1,338.5c-2.1,1.7-4.8,2.3-7.5,2.3c-3.7,0-6.3-2.3-5.5-5.7c0.7-3,3.3-4.8,6.2-6.2
		L393.1,338.5z M315,345.9h7.6l6.3-28.7h0.1l9.1,28.7h9.8l8.3-38.4h-7.7l-6.2,28.7h-0.1l-9-28.7h-9.8L315,345.9z M285.2,345.9h23.7
		l1.3-6h-15.7l2.4-10.8h14.2l1.3-6.1h-14.3l2.1-9.5h15.6l1.3-6.1h-23.6L285.2,345.9z M286.7,308.2c-2.7-0.9-5.9-1.4-9.3-1.4
		c-7,0-14.7,3.1-16.5,11.7c-2.8,12.7,15.4,9.7,13.8,17c-0.8,3.5-5.2,5-8.2,5c-3.2,0-6.1-0.9-8.5-2.4l-2.2,6.9
		c3.7,0.9,5.6,1.5,9.9,1.5c8,0,15.7-3.2,17.5-11.6c2.8-12.8-15.4-10-13.9-16.7c0.9-4.2,4.7-5.3,7.4-5.3c2.8,0,5.5,0.6,7.8,1.6
		L286.7,308.2z M224,345.9h8l3.5-15.9h2.6c3.4,0,4.2,1.1,4.7,4l2.2,12h8.9l-3.1-15c-0.4-1.7-1.3-3.8-3.4-3.9v-0.1
		c5.2-0.7,9.2-4.4,10.2-8.9c2.3-10.7-8-10.4-16.6-10.4h-8.7L224,345.9z M239.1,313.5h2.6c4,0,8.4,0.4,7.4,5
		c-1.1,4.8-5.7,5.3-9.6,5.3h-2.6L239.1,313.5z M183.3,345.9h8.3l5.4-8.8h16.2l1.5,8.8h8.9l-7.4-38.4h-9L183.3,345.9z M212.3,331
		h-11.7l9.2-15.8h0.1L212.3,331z M159.3,345.9h23.5l1.3-6h-15.5l7-32.4h-8L159.3,345.9z"/>
</g>
</svg>
